<svg width="126" height="45" viewBox="0 0 126 45" fill="none" xmlns="http://www.w3.org/2000/svg">
<g clip-path="url(#clip0_0_158)">
<path d="M15.6305 3.09597C13.7388 4.48154 13.0521 6.72255 13.5581 8.74669C13.8955 10.1443 13.5581 11.6263 12.546 12.6504L10.9677 14.2287C9.94358 15.2529 8.47367 15.5782 7.06401 15.2408C5.03987 14.7468 2.78681 15.4336 1.41328 17.3131C0.124101 19.0843 0.0397618 21.5421 1.23256 23.3856C3.18441 26.3856 7.24473 26.6868 9.63033 24.3133C11.0641 22.8795 11.5099 20.8554 10.9918 19.0361C10.6183 17.7228 11.0761 16.3011 12.0521 15.3251L13.6304 13.7468C14.5943 12.7829 16.016 12.313 17.3413 12.6865C19.1606 13.2046 21.1848 12.7588 22.6185 11.3251C25.0041 8.93947 24.6909 4.87914 21.6908 2.92729C19.8595 1.73449 17.3895 1.81883 15.6184 3.10802L15.6305 3.09597Z" fill="#061DB2"/>
<path d="M31.233 5.1079C29.3414 6.49347 28.6667 8.73448 29.1607 10.7586C29.498 12.1562 29.1607 13.6382 28.1486 14.6623L26.2932 16.5178C25.3293 17.4817 23.9076 17.9515 22.5822 17.578C20.7629 17.06 18.7388 17.5058 17.305 18.9395C15.8713 20.3733 15.4255 22.3974 15.9435 24.2167C16.317 25.53 15.8592 26.9517 14.8833 27.9277L13.0278 29.7831C12.0037 30.8072 10.5338 31.1325 9.12413 30.7952C7.09999 30.3012 4.84693 30.988 3.4734 32.8675C2.18422 34.6386 2.09988 37.0965 3.29268 38.9399C5.24453 41.94 9.30485 42.2412 11.6904 39.8677C13.1242 38.4339 13.57 36.4098 13.0519 34.5904C12.6784 33.2772 13.1363 31.8554 14.1122 30.8795L15.9676 29.0241C16.9315 28.0602 18.3532 27.5903 19.6786 27.9638C21.4979 28.4819 23.522 28.0361 24.9558 26.6023C26.3895 25.1686 26.8353 23.1444 26.3173 21.3251C25.9438 20.0118 26.4016 18.5901 27.3775 17.6142L29.233 15.7587C30.1969 14.7949 31.6186 14.325 32.9439 14.6985C34.7632 15.2165 36.7874 14.7708 38.2211 13.337C40.6067 10.9514 40.2935 6.89107 37.2934 4.93922C35.462 3.74643 32.9921 3.83077 31.221 5.11995L31.233 5.1079Z" fill="#061DB2"/>
<path d="M33.2451 20.7227C31.3535 22.1083 30.6788 24.3493 31.1728 26.3735C31.5102 27.7711 31.1728 29.253 30.1607 30.2772L28.5824 31.8555C27.5583 32.8796 26.0884 33.2049 24.6787 32.8676C22.6546 32.3736 20.4015 33.0603 19.028 34.9399C17.7388 36.711 17.6544 39.1689 18.8472 41.0123C20.7991 44.0124 24.8594 44.3256 27.245 41.9401C28.6788 40.5063 29.1246 38.4821 28.6065 36.6628C28.233 35.3496 28.6908 33.9278 29.6667 32.9519L31.2451 31.3736C32.209 30.4097 33.6307 29.9398 34.956 30.3133C36.7753 30.8314 38.7995 30.3856 40.2332 28.9518C42.6188 26.5662 42.3056 22.5059 39.3055 20.5541C37.4741 19.3613 35.0042 19.4456 33.2331 20.7348L33.2451 20.7227Z" fill="#061DB2"/>
</g>
<path d="M60.9624 8.93366L68.4955 30.9779H68.7994L76.3326 8.93366H80.7467L71.0065 36H66.2884L56.5482 8.93366H60.9624ZM88.7391 8.93366V36H84.6553V8.93366H88.7391ZM94.6863 8.93366H99.6423L108.259 29.9735H108.576L117.193 8.93366H122.149V36H118.264V16.4139H118.012L110.03 35.9604H106.805L98.8229 16.4007H98.5718V36H94.6863V8.93366Z" fill="#061DB2"/>
<defs>
<clipPath id="clip0_0_158">
<rect width="41.4346" height="41.4346" fill="white" transform="translate(0.376953 2.07172)"/>
</clipPath>
</defs>
</svg>
